<?xml version="1.0" encoding="UTF-8" standalone="no"?>
<!DOCTYPE svg PUBLIC "-//W3C//DTD SVG 1.1//EN"
 "http://www.w3.org/Graphics/SVG/1.1/DTD/svg11.dtd">
<!-- Generated by graphviz version 14.1.1 (20251213.1925)
 -->
<!-- Title: InheritanceTree Pages: 1 -->
<svg width="396pt" height="1005pt"
 viewBox="0.00 0.00 396.00 1005.00" xmlns="http://www.w3.org/2000/svg" xmlns:xlink="http://www.w3.org/1999/xlink">
<g id="graph0" class="graph" transform="scale(1 1) rotate(0) translate(4 1000.5)">
<title>InheritanceTree</title>
<polygon fill="white" stroke="none" points="-4,4 -4,-1000.5 392.25,-1000.5 392.25,4 -4,4"/>
<text xml:space="preserve" text-anchor="middle" x="194.12" y="-7.2" font-family="Times New Roman,serif" font-size="14.00">simple_yaml &#45; Inheritance Hierarchy</text>
<!-- SIMPLE_YAML -->
<g id="node1" class="node">
<title>SIMPLE_YAML</title>
<path fill="none" stroke="black" d="M123.25,-60.5C123.25,-60.5 36.75,-60.5 36.75,-60.5 30.75,-60.5 24.75,-54.5 24.75,-48.5 24.75,-48.5 24.75,-36.5 24.75,-36.5 24.75,-30.5 30.75,-24.5 36.75,-24.5 36.75,-24.5 123.25,-24.5 123.25,-24.5 129.25,-24.5 135.25,-30.5 135.25,-36.5 135.25,-36.5 135.25,-48.5 135.25,-48.5 135.25,-54.5 129.25,-60.5 123.25,-60.5"/>
<text xml:space="preserve" text-anchor="middle" x="80" y="-37.45" font-family="Times New Roman,serif" font-size="14.00">SIMPLE_YAML</text>
</g>
<!-- YAML_BOOLEAN -->
<g id="node2" class="node">
<title>YAML_BOOLEAN</title>
<path fill="none" stroke="black" d="M131.12,-564.5C131.12,-564.5 28.88,-564.5 28.88,-564.5 22.88,-564.5 16.88,-558.5 16.88,-552.5 16.88,-552.5 16.88,-540.5 16.88,-540.5 16.88,-534.5 22.88,-528.5 28.88,-528.5 28.88,-528.5 131.12,-528.5 131.12,-528.5 137.12,-528.5 143.12,-534.5 143.12,-540.5 143.12,-540.5 143.12,-552.5 143.12,-552.5 143.12,-558.5 137.12,-564.5 131.12,-564.5"/>
<text xml:space="preserve" text-anchor="middle" x="80" y="-541.45" font-family="Times New Roman,serif" font-size="14.00">YAML_BOOLEAN</text>
</g>
<!-- YAML_VALUE -->
<g id="node3" class="node">
<title>YAML_VALUE</title>
<path fill="none" stroke="black" d="M369.12,-348.5C369.12,-348.5 287.12,-348.5 287.12,-348.5 281.12,-348.5 275.12,-342.5 275.12,-336.5 275.12,-336.5 275.12,-324.5 275.12,-324.5 275.12,-318.5 281.12,-312.5 287.12,-312.5 287.12,-312.5 369.12,-312.5 369.12,-312.5 375.12,-312.5 381.12,-318.5 381.12,-324.5 381.12,-324.5 381.12,-336.5 381.12,-336.5 381.12,-342.5 375.12,-348.5 369.12,-348.5"/>
<text xml:space="preserve" text-anchor="middle" x="328.12" y="-325.45" font-family="Times New Roman,serif" font-size="14.00">YAML_VALUE</text>
</g>
<!-- YAML_BOOLEAN&#45;&gt;YAML_VALUE -->
<g id="edge1" class="edge">
<title>YAML_BOOLEAN&#45;&gt;YAML_VALUE</title>
<path fill="none" stroke="black" d="M143.41,-546.5C206.59,-546.5 294.25,-546.5 294.25,-546.5 294.25,-546.5 294.25,-360.43 294.25,-360.43"/>
<polygon fill="none" stroke="black" points="297.75,-360.43 294.25,-350.43 290.75,-360.43 297.75,-360.43"/>
</g>
<!-- YAML_FLOAT -->
<g id="node4" class="node">
<title>YAML_FLOAT</title>
<path fill="none" stroke="black" d="M119.88,-492.5C119.88,-492.5 40.12,-492.5 40.12,-492.5 34.12,-492.5 28.12,-486.5 28.12,-480.5 28.12,-480.5 28.12,-468.5 28.12,-468.5 28.12,-462.5 34.12,-456.5 40.12,-456.5 40.12,-456.5 119.88,-456.5 119.88,-456.5 125.88,-456.5 131.88,-462.5 131.88,-468.5 131.88,-468.5 131.88,-480.5 131.88,-480.5 131.88,-486.5 125.88,-492.5 119.88,-492.5"/>
<text xml:space="preserve" text-anchor="middle" x="80" y="-469.45" font-family="Times New Roman,serif" font-size="14.00">YAML_FLOAT</text>
</g>
<!-- YAML_FLOAT&#45;&gt;YAML_VALUE -->
<g id="edge2" class="edge">
<title>YAML_FLOAT&#45;&gt;YAML_VALUE</title>
<path fill="none" stroke="black" d="M132.28,-474.5C193.97,-474.5 288.25,-474.5 288.25,-474.5 288.25,-474.5 288.25,-360.25 288.25,-360.25"/>
<polygon fill="none" stroke="black" points="291.75,-360.25 288.25,-350.25 284.75,-360.25 291.75,-360.25"/>
</g>
<!-- YAML_INTEGER -->
<g id="node5" class="node">
<title>YAML_INTEGER</title>
<path fill="none" stroke="black" d="M127.75,-420.5C127.75,-420.5 32.25,-420.5 32.25,-420.5 26.25,-420.5 20.25,-414.5 20.25,-408.5 20.25,-408.5 20.25,-396.5 20.25,-396.5 20.25,-390.5 26.25,-384.5 32.25,-384.5 32.25,-384.5 127.75,-384.5 127.75,-384.5 133.75,-384.5 139.75,-390.5 139.75,-396.5 139.75,-396.5 139.75,-408.5 139.75,-408.5 139.75,-414.5 133.75,-420.5 127.75,-420.5"/>
<text xml:space="preserve" text-anchor="middle" x="80" y="-397.45" font-family="Times New Roman,serif" font-size="14.00">YAML_INTEGER</text>
</g>
<!-- YAML_INTEGER&#45;&gt;YAML_VALUE -->
<g id="edge3" class="edge">
<title>YAML_INTEGER&#45;&gt;YAML_VALUE</title>
<path fill="none" stroke="black" d="M140.11,-402.5C199.41,-402.5 281.25,-402.5 281.25,-402.5 281.25,-402.5 281.25,-360.18 281.25,-360.18"/>
<polygon fill="none" stroke="black" points="284.75,-360.18 281.25,-350.18 277.75,-360.18 284.75,-360.18"/>
</g>
<!-- YAML_MAPPING -->
<g id="node6" class="node">
<title>YAML_MAPPING</title>
<path fill="none" stroke="black" d="M129.62,-348.5C129.62,-348.5 30.38,-348.5 30.38,-348.5 24.38,-348.5 18.38,-342.5 18.38,-336.5 18.38,-336.5 18.38,-324.5 18.38,-324.5 18.38,-318.5 24.38,-312.5 30.38,-312.5 30.38,-312.5 129.62,-312.5 129.62,-312.5 135.62,-312.5 141.62,-318.5 141.62,-324.5 141.62,-324.5 141.62,-336.5 141.62,-336.5 141.62,-342.5 135.62,-348.5 129.62,-348.5"/>
<text xml:space="preserve" text-anchor="middle" x="80" y="-325.45" font-family="Times New Roman,serif" font-size="14.00">YAML_MAPPING</text>
</g>
<!-- YAML_MAPPING&#45;&gt;YAML_VALUE -->
<g id="edge4" class="edge">
<title>YAML_MAPPING&#45;&gt;YAML_VALUE</title>
<path fill="none" stroke="black" d="M141.97,-330.5C141.97,-330.5 263.41,-330.5 263.41,-330.5"/>
<polygon fill="none" stroke="black" points="263.41,-334 273.41,-330.5 263.41,-327 263.41,-334"/>
</g>
<!-- YAML_NULL -->
<g id="node7" class="node">
<title>YAML_NULL</title>
<path fill="none" stroke="black" d="M116.88,-276.5C116.88,-276.5 43.12,-276.5 43.12,-276.5 37.12,-276.5 31.12,-270.5 31.12,-264.5 31.12,-264.5 31.12,-252.5 31.12,-252.5 31.12,-246.5 37.12,-240.5 43.12,-240.5 43.12,-240.5 116.88,-240.5 116.88,-240.5 122.88,-240.5 128.88,-246.5 128.88,-252.5 128.88,-252.5 128.88,-264.5 128.88,-264.5 128.88,-270.5 122.88,-276.5 116.88,-276.5"/>
<text xml:space="preserve" text-anchor="middle" x="80" y="-253.45" font-family="Times New Roman,serif" font-size="14.00">YAML_NULL</text>
</g>
<!-- YAML_NULL&#45;&gt;YAML_VALUE -->
<g id="edge5" class="edge">
<title>YAML_NULL&#45;&gt;YAML_VALUE</title>
<path fill="none" stroke="black" d="M129.1,-258.5C194.28,-258.5 301.25,-258.5 301.25,-258.5 301.25,-258.5 301.25,-300.82 301.25,-300.82"/>
<polygon fill="none" stroke="black" points="297.75,-300.82 301.25,-310.82 304.75,-300.82 297.75,-300.82"/>
</g>
<!-- YAML_SEQUENCE -->
<g id="node8" class="node">
<title>YAML_SEQUENCE</title>
<path fill="none" stroke="black" d="M134.12,-204.5C134.12,-204.5 25.88,-204.5 25.88,-204.5 19.88,-204.5 13.88,-198.5 13.88,-192.5 13.88,-192.5 13.88,-180.5 13.88,-180.5 13.88,-174.5 19.88,-168.5 25.88,-168.5 25.88,-168.5 134.12,-168.5 134.12,-168.5 140.12,-168.5 146.12,-174.5 146.12,-180.5 146.12,-180.5 146.12,-192.5 146.12,-192.5 146.12,-198.5 140.12,-204.5 134.12,-204.5"/>
<text xml:space="preserve" text-anchor="middle" x="80" y="-181.45" font-family="Times New Roman,serif" font-size="14.00">YAML_SEQUENCE</text>
</g>
<!-- YAML_SEQUENCE&#45;&gt;YAML_VALUE -->
<g id="edge6" class="edge">
<title>YAML_SEQUENCE&#45;&gt;YAML_VALUE</title>
<path fill="none" stroke="black" d="M146.53,-186.5C220.06,-186.5 328.25,-186.5 328.25,-186.5 328.25,-186.5 328.25,-300.75 328.25,-300.75"/>
<polygon fill="none" stroke="black" points="324.75,-300.75 328.25,-310.75 331.75,-300.75 324.75,-300.75"/>
</g>
<!-- YAML_STRING -->
<g id="node9" class="node">
<title>YAML_STRING</title>
<path fill="none" stroke="black" d="M123.25,-132.5C123.25,-132.5 36.75,-132.5 36.75,-132.5 30.75,-132.5 24.75,-126.5 24.75,-120.5 24.75,-120.5 24.75,-108.5 24.75,-108.5 24.75,-102.5 30.75,-96.5 36.75,-96.5 36.75,-96.5 123.25,-96.5 123.25,-96.5 129.25,-96.5 135.25,-102.5 135.25,-108.5 135.25,-108.5 135.25,-120.5 135.25,-120.5 135.25,-126.5 129.25,-132.5 123.25,-132.5"/>
<text xml:space="preserve" text-anchor="middle" x="80" y="-109.45" font-family="Times New Roman,serif" font-size="14.00">YAML_STRING</text>
</g>
<!-- YAML_STRING&#45;&gt;YAML_VALUE -->
<g id="edge7" class="edge">
<title>YAML_STRING&#45;&gt;YAML_VALUE</title>
<path fill="none" stroke="black" d="M135.5,-114.5C215.64,-114.5 354.25,-114.5 354.25,-114.5 354.25,-114.5 354.25,-300.57 354.25,-300.57"/>
<polygon fill="none" stroke="black" points="350.75,-300.57 354.25,-310.57 357.75,-300.57 350.75,-300.57"/>
</g>
<!-- YAML_LEXER -->
<g id="node10" class="node">
<title>YAML_LEXER</title>
<path fill="none" stroke="black" d="M120.62,-708.5C120.62,-708.5 39.38,-708.5 39.38,-708.5 33.38,-708.5 27.38,-702.5 27.38,-696.5 27.38,-696.5 27.38,-684.5 27.38,-684.5 27.38,-678.5 33.38,-672.5 39.38,-672.5 39.38,-672.5 120.62,-672.5 120.62,-672.5 126.62,-672.5 132.62,-678.5 132.62,-684.5 132.62,-684.5 132.62,-696.5 132.62,-696.5 132.62,-702.5 126.62,-708.5 120.62,-708.5"/>
<text xml:space="preserve" text-anchor="middle" x="80" y="-685.45" font-family="Times New Roman,serif" font-size="14.00">YAML_LEXER</text>
</g>
<!-- ANY -->
<g id="node11" class="node">
<title>ANY</title>
<path fill="none" stroke="black" d="M343.12,-672.5C343.12,-672.5 313.12,-672.5 313.12,-672.5 307.12,-672.5 301.12,-666.5 301.12,-660.5 301.12,-660.5 301.12,-648.5 301.12,-648.5 301.12,-642.5 307.12,-636.5 313.12,-636.5 313.12,-636.5 343.12,-636.5 343.12,-636.5 349.12,-636.5 355.12,-642.5 355.12,-648.5 355.12,-648.5 355.12,-660.5 355.12,-660.5 355.12,-666.5 349.12,-672.5 343.12,-672.5"/>
<text xml:space="preserve" text-anchor="middle" x="328.12" y="-649.45" font-family="Times New Roman,serif" font-size="14.00">ANY</text>
</g>
<!-- YAML_LEXER&#45;&gt;ANY -->
<g id="edge8" class="edge">
<title>YAML_LEXER&#45;&gt;ANY</title>
<path fill="none" stroke="black" d="M132.95,-690.5C205.86,-690.5 328.25,-690.5 328.25,-690.5 328.25,-690.5 328.25,-684.44 328.25,-684.44"/>
<polygon fill="none" stroke="black" points="331.75,-684.44 328.25,-674.44 324.75,-684.44 331.75,-684.44"/>
</g>
<!-- YAML_TOKEN -->
<g id="node12" class="node">
<title>YAML_TOKEN</title>
<path fill="none" stroke="black" d="M121.75,-780.5C121.75,-780.5 38.25,-780.5 38.25,-780.5 32.25,-780.5 26.25,-774.5 26.25,-768.5 26.25,-768.5 26.25,-756.5 26.25,-756.5 26.25,-750.5 32.25,-744.5 38.25,-744.5 38.25,-744.5 121.75,-744.5 121.75,-744.5 127.75,-744.5 133.75,-750.5 133.75,-756.5 133.75,-756.5 133.75,-768.5 133.75,-768.5 133.75,-774.5 127.75,-780.5 121.75,-780.5"/>
<text xml:space="preserve" text-anchor="middle" x="80" y="-757.45" font-family="Times New Roman,serif" font-size="14.00">YAML_TOKEN</text>
</g>
<!-- YAML_PARSER -->
<g id="node13" class="node">
<title>YAML_PARSER</title>
<path fill="none" stroke="black" d="M124,-636.5C124,-636.5 36,-636.5 36,-636.5 30,-636.5 24,-630.5 24,-624.5 24,-624.5 24,-612.5 24,-612.5 24,-606.5 30,-600.5 36,-600.5 36,-600.5 124,-600.5 124,-600.5 130,-600.5 136,-606.5 136,-612.5 136,-612.5 136,-624.5 136,-624.5 136,-630.5 130,-636.5 124,-636.5"/>
<text xml:space="preserve" text-anchor="middle" x="80" y="-613.45" font-family="Times New Roman,serif" font-size="14.00">YAML_PARSER</text>
</g>
<!-- YAML_PARSER&#45;&gt;ANY -->
<g id="edge9" class="edge">
<title>YAML_PARSER&#45;&gt;ANY</title>
<path fill="none" stroke="black" d="M136.33,-618.5C209.58,-618.5 328.25,-618.5 328.25,-618.5 328.25,-618.5 328.25,-624.56 328.25,-624.56"/>
<polygon fill="none" stroke="black" points="324.75,-624.56 328.25,-634.56 331.75,-624.56 324.75,-624.56"/>
</g>
<!-- SIMPLE_YAML_QUICK -->
<g id="node14" class="node">
<title>SIMPLE_YAML_QUICK</title>
<path fill="none" stroke="black" d="M148,-852.5C148,-852.5 12,-852.5 12,-852.5 6,-852.5 0,-846.5 0,-840.5 0,-840.5 0,-828.5 0,-828.5 0,-822.5 6,-816.5 12,-816.5 12,-816.5 148,-816.5 148,-816.5 154,-816.5 160,-822.5 160,-828.5 160,-828.5 160,-840.5 160,-840.5 160,-846.5 154,-852.5 148,-852.5"/>
<text xml:space="preserve" text-anchor="middle" x="80" y="-829.45" font-family="Times New Roman,serif" font-size="14.00">SIMPLE_YAML_QUICK</text>
</g>
<!-- LIB_TESTS -->
<g id="node15" class="node">
<title>LIB_TESTS</title>
<path fill="none" stroke="black" d="M110.12,-924.5C110.12,-924.5 49.88,-924.5 49.88,-924.5 43.88,-924.5 37.88,-918.5 37.88,-912.5 37.88,-912.5 37.88,-900.5 37.88,-900.5 37.88,-894.5 43.88,-888.5 49.88,-888.5 49.88,-888.5 110.12,-888.5 110.12,-888.5 116.12,-888.5 122.12,-894.5 122.12,-900.5 122.12,-900.5 122.12,-912.5 122.12,-912.5 122.12,-918.5 116.12,-924.5 110.12,-924.5"/>
<text xml:space="preserve" text-anchor="middle" x="80" y="-901.45" font-family="Times New Roman,serif" font-size="14.00">LIB_TESTS</text>
</g>
<!-- TEST_SET_BASE -->
<g id="node16" class="node">
<title>TEST_SET_BASE</title>
<path fill="none" stroke="black" d="M376.25,-924.5C376.25,-924.5 280,-924.5 280,-924.5 274,-924.5 268,-918.5 268,-912.5 268,-912.5 268,-900.5 268,-900.5 268,-894.5 274,-888.5 280,-888.5 280,-888.5 376.25,-888.5 376.25,-888.5 382.25,-888.5 388.25,-894.5 388.25,-900.5 388.25,-900.5 388.25,-912.5 388.25,-912.5 388.25,-918.5 382.25,-924.5 376.25,-924.5"/>
<text xml:space="preserve" text-anchor="middle" x="328.12" y="-901.45" font-family="Times New Roman,serif" font-size="14.00">TEST_SET_BASE</text>
</g>
<!-- LIB_TESTS&#45;&gt;TEST_SET_BASE -->
<g id="edge10" class="edge">
<title>LIB_TESTS&#45;&gt;TEST_SET_BASE</title>
<path fill="none" stroke="black" d="M122.37,-906.5C122.37,-906.5 256.28,-906.5 256.28,-906.5"/>
<polygon fill="none" stroke="black" points="256.28,-910 266.28,-906.5 256.28,-903 256.28,-910"/>
</g>
<!-- TEST_APP -->
<g id="node17" class="node">
<title>TEST_APP</title>
<path fill="none" stroke="black" d="M107.88,-996.5C107.88,-996.5 52.12,-996.5 52.12,-996.5 46.12,-996.5 40.12,-990.5 40.12,-984.5 40.12,-984.5 40.12,-972.5 40.12,-972.5 40.12,-966.5 46.12,-960.5 52.12,-960.5 52.12,-960.5 107.88,-960.5 107.88,-960.5 113.88,-960.5 119.88,-966.5 119.88,-972.5 119.88,-972.5 119.88,-984.5 119.88,-984.5 119.88,-990.5 113.88,-996.5 107.88,-996.5"/>
<text xml:space="preserve" text-anchor="middle" x="80" y="-973.45" font-family="Times New Roman,serif" font-size="14.00">TEST_APP</text>
</g>
</g>
</svg>
