<?xml version="1.0" encoding="UTF-8" standalone="no"?>
<!DOCTYPE svg PUBLIC "-//W3C//DTD SVG 1.1//EN"
 "http://www.w3.org/Graphics/SVG/1.1/DTD/svg11.dtd">
<!-- Generated by graphviz version 14.1.1 (20251213.1925)
 -->
<!-- Title: Dependencies Pages: 1 -->
<svg width="346pt" height="357pt"
 viewBox="0.00 0.00 346.00 357.00" xmlns="http://www.w3.org/2000/svg" xmlns:xlink="http://www.w3.org/1999/xlink">
<g id="graph0" class="graph" transform="scale(1 1) rotate(0) translate(4 352.5)">
<title>Dependencies</title>
<polygon fill="white" stroke="none" points="-4,4 -4,-352.5 342,-352.5 342,4 -4,4"/>
<text xml:space="preserve" text-anchor="middle" x="169" y="-7.2" font-family="Times New Roman,serif" font-size="14.00">simple_yaml &#45; Dependencies</text>
<!-- simple_yaml -->
<g id="node1" class="node">
<title>simple_yaml</title>
<polygon fill="lightblue" stroke="black" points="87.25,-204.5 0,-204.5 0,-168.5 87.25,-168.5 87.25,-204.5"/>
<text xml:space="preserve" text-anchor="middle" x="43.62" y="-181.45" font-family="Times New Roman,serif" font-size="14.00">simple_yaml</text>
</g>
<!-- simple_regex -->
<g id="node2" class="node">
<title>simple_regex</title>
<polygon fill="lightblue" stroke="black" points="329.38,-348.5 239.88,-348.5 239.88,-312.5 329.38,-312.5 329.38,-348.5"/>
<text xml:space="preserve" text-anchor="middle" x="284.62" y="-325.45" font-family="Times New Roman,serif" font-size="14.00">simple_regex</text>
</g>
<!-- simple_yaml&#45;&gt;simple_regex -->
<g id="edge1" class="edge">
<title>simple_yaml&#45;&gt;simple_regex</title>
<path fill="none" stroke="black" stroke-dasharray="5,2" d="M29,-204.74C29,-243.49 29,-330.5 29,-330.5 29,-330.5 228,-330.5 228,-330.5"/>
<polygon fill="black" stroke="black" points="228,-334 238,-330.5 228,-327 228,-334"/>
</g>
<!-- simple_datetime -->
<g id="node3" class="node">
<title>simple_datetime</title>
<polygon fill="lightblue" stroke="black" points="338,-276.5 231.25,-276.5 231.25,-240.5 338,-240.5 338,-276.5"/>
<text xml:space="preserve" text-anchor="middle" x="284.62" y="-253.45" font-family="Times New Roman,serif" font-size="14.00">simple_datetime</text>
</g>
<!-- simple_yaml&#45;&gt;simple_datetime -->
<g id="edge2" class="edge">
<title>simple_yaml&#45;&gt;simple_datetime</title>
<path fill="none" stroke="black" stroke-dasharray="5,2" d="M58,-204.67C58,-226 58,-258.5 58,-258.5 58,-258.5 219.4,-258.5 219.4,-258.5"/>
<polygon fill="black" stroke="black" points="219.4,-262 229.4,-258.5 219.4,-255 219.4,-262"/>
</g>
<!-- simple_testing -->
<g id="node4" class="node">
<title>simple_testing</title>
<polygon fill="lightblue" stroke="black" points="332.38,-204.5 236.88,-204.5 236.88,-168.5 332.38,-168.5 332.38,-204.5"/>
<text xml:space="preserve" text-anchor="middle" x="284.62" y="-181.45" font-family="Times New Roman,serif" font-size="14.00">simple_testing</text>
</g>
<!-- simple_yaml&#45;&gt;simple_testing -->
<g id="edge3" class="edge">
<title>simple_yaml&#45;&gt;simple_testing</title>
<path fill="none" stroke="black" stroke-dasharray="5,2" d="M87.55,-186.5C87.55,-186.5 224.94,-186.5 224.94,-186.5"/>
<polygon fill="black" stroke="black" points="224.94,-190 234.94,-186.5 224.94,-183 224.94,-190"/>
</g>
<!-- base -->
<g id="node5" class="node">
<title>base</title>
<polygon fill="lightgray" stroke="black" points="311.62,-132.5 257.62,-132.5 257.62,-96.5 311.62,-96.5 311.62,-132.5"/>
<text xml:space="preserve" text-anchor="middle" x="284.62" y="-109.45" font-family="Times New Roman,serif" font-size="14.00">base</text>
</g>
<!-- simple_yaml&#45;&gt;base -->
<g id="edge4" class="edge">
<title>simple_yaml&#45;&gt;base</title>
<path fill="none" stroke="black" stroke-dasharray="5,2" d="M58,-168.33C58,-147 58,-114.5 58,-114.5 58,-114.5 245.78,-114.5 245.78,-114.5"/>
<polygon fill="black" stroke="black" points="245.78,-118 255.78,-114.5 245.78,-111 245.78,-118"/>
</g>
<!-- testing -->
<g id="node6" class="node">
<title>testing</title>
<polygon fill="lightgray" stroke="black" points="311.62,-60.5 257.62,-60.5 257.62,-24.5 311.62,-24.5 311.62,-60.5"/>
<text xml:space="preserve" text-anchor="middle" x="284.62" y="-37.45" font-family="Times New Roman,serif" font-size="14.00">testing</text>
</g>
<!-- simple_yaml&#45;&gt;testing -->
<g id="edge5" class="edge">
<title>simple_yaml&#45;&gt;testing</title>
<path fill="none" stroke="black" stroke-dasharray="5,2" d="M29,-168.26C29,-129.51 29,-42.5 29,-42.5 29,-42.5 245.76,-42.5 245.76,-42.5"/>
<polygon fill="black" stroke="black" points="245.76,-46 255.76,-42.5 245.76,-39 245.76,-46"/>
</g>
</g>
</svg>
